Inverse Dynamics Generalized Forces
version=1
nRows=13
nColumns=34
inDegrees=no
endheader 
time	pelvis_tilt_moment	pelvis_list_moment	pelvis_rotation_moment	pelvis_tx_force	pelvis_ty_force	pelvis_tz_force	hip_flexion_l_moment	hip_adduction_l_moment	hip_rotation_l_moment	hip_flexion_r_moment	hip_adduction_r_moment	hip_rotation_r_moment	knee_angle_l_moment	knee_angle_r_moment	ankle_angle_l_moment	ankle_angle_r_moment	subtalar_angle_l_moment	subtalar_angle_r_moment	mtp_angle_l_moment	mtp_angle_r_moment	lumbar_extension_moment	lumbar_bending_moment	lumbar_rotation_moment	arm_flex_l_moment	arm_add_l_moment	arm_rot_l_moment	arm_flex_r_moment	arm_add_r_moment	arm_rot_r_moment	elbow_flex_l_moment	elbow_flex_r_moment	pro_sup_l_moment	pro_sup_r_moment	
          6.82000000	         -0.00000000	         -0.00000000	         -0.00000000	          0.00000000	          0.00000000	          0.00000000	          6.50495749	        -11.88955084	         -0.50783073	         37.67972770	        -21.11110261	         -1.53747819	          0.54104048	        -29.11258134	         -0.45316527	          2.29968807	          0.07038630	          0.48023325	          0.07350509	         -0.18442523	        -39.66605149	         -4.63691211	         -9.55459322	        -17.24801675	         48.81996186	          2.62893489	        -17.18604372	         10.97102995	          7.06912601	        -14.31351602	         -5.32242077	         -0.28672192	          0.28293034	
          6.83000000	          0.00000000	          0.00000000	         -0.00000000	          0.00000000	          0.00000000	          0.00000000	          9.62178650	        -18.39150923	          2.35205249	         34.29236648	        -19.85165009	         -0.05271816	         -1.39221218	        -23.80340502	         -0.26213734	          1.87943779	         -0.11968178	          0.10033779	          0.06473695	         -0.11405112	        -44.09959937	        -19.91423827	        -16.56825476	        -31.08387393	         23.63764302	        -35.20965141	        -37.21065606	          4.06078133	         42.69784159	        -28.58369345	          5.21772519	         -2.50358196	          0.99711617	
          6.84000000	         -0.00000000	         -0.00000000	          0.00000000	         -0.00000000	          0.00000000	          0.00000000	         44.55595964	        -16.24450917	          3.98403023	         26.82380343	        -20.46268744	          2.06836187	        -13.62303932	        -25.40349068	         -0.11555876	          2.14069925	         -0.33021146	         -0.51596570	          0.08329448	         -0.11365233	        -69.37601203	          7.71943420	          2.04122137	         -0.38830785	        -20.18382264	         13.06339626	        -24.21214972	          3.44013424	         -6.60628805	         15.46022426	         -1.66668891	          1.00111339	         -0.17612612	
          6.85000000	          0.00000000	          0.00000000	          0.00000000	          0.00000000	          0.00000000	          0.00000000	         64.01102219	        -17.45828546	          7.61810565	         18.59563472	        -20.85646929	          4.53135834	        -17.62654375	        -26.49342317	         -0.14939803	          2.22444139	         -0.27575786	         -0.98523935	          0.08176042	         -0.09863885	        -82.37484408	         12.09195924	         11.86481058	         -0.69550720	        -52.21304865	        -28.54045232	        -17.29419910	         -4.60632309	        -29.13653950	          6.55143362	         -2.76019467	         -1.49532469	         -0.69163133	
          6.86000000	         -0.00000000	          0.00000000	          0.00000000	          0.00000000	          0.00000000	          0.00000000	         68.90192787	        -30.95593153	          5.19350677	         -4.21280188	        -34.95407311	         10.97546101	        -14.56512817	        -17.85717805	         -0.53803968	          1.85492993	         -0.19905492	         -1.11640599	          0.12843154	         -0.06156084	        -65.22353946	         13.32722315	         -4.97550041	         19.25107294	        -32.50414523	         -6.03430956	        -27.20508186	          2.48166758	         16.28636578	         16.49734800	          3.73262054	         -0.33637067	          0.42020219	
          6.87000000	         -0.00000000	         -0.00000000	         -0.00000000	         -0.00000000	         -0.00000000	         -0.00000000	         71.32873362	        -24.91382871	          6.05652020	        -18.50628805	        -42.19099815	         14.61153690	        -12.17788962	         -9.95312759	          0.03821050	          1.80537715	          0.03308821	         -1.55691009	          0.04529578	         -0.03853365	        -52.75827452	         15.03537193	        -11.73384503	         18.13075005	        -17.52182825	         -3.37447728	        -24.63531619	         -2.12482364	         -4.28485943	         14.06477627	          4.45481007	         -0.34263582	         -0.17353740	
          6.88000000	         -0.00000000	          0.00000000	         -0.00000000	          0.00000000	          0.00000000	         -0.00000000	         72.48813886	        -19.47144298	          6.21605765	        -25.64290738	        -44.45311571	         17.29427335	        -10.36604672	         -5.15588521	          1.12791139	          1.68837572	          0.01605904	         -2.11949518	         -0.07005553	         -0.01141969	        -42.01549336	         -3.20292547	        -23.07527844	         23.54396860	         14.33002794	         10.43187451	        -22.00342605	        -11.75266781	         -8.59004276	         14.25857765	          9.65701088	          0.05744835	         -0.33525589	
          6.89000000	          0.00000000	          0.00000000	          0.00000000	         -0.00000000	         -0.00000000	         -0.00000000	         64.65558749	        -27.33613592	          8.41037523	        -19.00451094	        -35.85150394	         15.35943220	         -9.56064625	         -2.52270177	          1.55556668	          1.91233671	         -0.60193960	         -2.32678935	         -0.10106426	         -0.03599334	        -44.95376587	        -11.61872024	        -27.33748913	         18.39300883	         -0.42712379	          2.00825193	        -18.81101558	        -14.48371689	         -8.54548504	         10.91423190	         12.52007667	         -0.22359662	         -0.37703776	
          6.90000000	          0.00000000	          0.00000000	         -0.00000000	         -0.00000000	         -0.00000000	         -0.00000000	         50.65174060	        -25.07039205	          6.41407173	        -17.62378250	        -30.36834711	         14.63002992	         -8.52222579	          1.05792429	          3.42916866	          1.97478626	         -1.37038160	         -2.08396562	         -0.28732046	         -0.06457997	        -32.27885980	          1.91675051	        -26.96181927	         10.31938823	        -37.19486323	        -15.00573695	          6.68709022	        -16.86388130	        -12.71137392	          9.02157298	         17.91124923	         -0.66704781	         -0.64140768	
          6.91000000	         -0.00000000	         -0.00000000	         -0.00000000	         -0.00000000	         -0.00000000	         -0.00000000	         47.06933147	        -19.67415746	          5.28094212	        -30.06935970	        -32.40652000	         10.73729505	         -8.42514873	          5.65969572	          3.15238326	          2.13348403	         -1.09177925	         -1.13414754	         -0.26609575	         -0.11816182	        -15.48762128	         32.18851881	         -3.06591789	         -8.80297410	        -65.14493111	        -30.39147812	         42.69593124	        -13.12731440	        -13.78813341	          3.70770180	         20.05862808	         -0.94433498	         -0.80190029	
          6.92000000	         -0.00000000	         -0.00000000	         -0.00000000	          0.00000000	         -0.00000000	          0.00000000	         41.77571437	        -12.97093452	          5.16905692	        -44.45063526	        -28.82082342	          6.08836968	         -8.72331650	         13.16130344	          2.63670477	          1.99357543	         -0.97132341	         -0.75078468	         -0.20176646	         -0.12233480	         10.61636613	         44.75589097	         12.75474675	         -4.72271613	        -60.58786060	        -27.58623200	         69.44066613	        -14.96064996	        -16.21173414	          6.63961765	         21.21885267	         -0.84639371	         -0.93228896	
          6.93000000	          0.00000000	          0.00000000	          0.00000000	         -0.00000000	         -0.00000000	         -0.00000000	         40.47993842	         -6.51678928	          4.84627558	        -50.37210442	        -27.53770511	          5.40866780	        -11.81821338	         15.48199654	          2.47433722	          1.71683967	         -1.09335909	         -0.81231857	         -0.14573725	         -0.08647244	         29.98401332	         46.96855482	         16.14497717	         28.37620925	        -15.60112130	         -1.55316260	         89.21618994	         -4.79280248	         -3.30115193	         18.32865406	         26.25512892	         -0.31159708	         -0.89029882	
          6.94000000	         -0.00000000	         -0.00000000	         -0.00000000	          0.00000000	          0.00000000	          0.00000000	         43.56632721	         -7.28585668	          3.96129771	        -58.51394862	        -24.56680974	          8.57513821	        -20.06809799	         20.31729289	          3.63413467	          1.91228632	         -1.66053742	         -1.20743580	         -0.21862161	         -0.09402410	         34.73794221	         62.36054331	          2.40712017	         53.45513828	         14.89992171	         17.17632200	        103.70958867	         31.18920255	         35.59136064	         21.50589891	         26.96744972	          0.09306696	         -0.30106346	
